<svg width="37" height="36" viewBox="0 0 37 36" fill="none" xmlns="http://www.w3.org/2000/svg">
<g clip-path="url(#clip0_2263_1733)">
<path d="M36.2857 17.0293V19.0091C36.2693 19.045 36.2572 19.0828 36.2496 19.1215C36.1357 20.9547 35.7436 22.7599 35.0868 24.4752C32.7593 30.6145 27.0182 35.0944 20.4998 35.8659C18.4005 36.1145 16.3198 36.0262 14.2615 35.5491C10.622 34.7059 7.50891 32.9258 5.01205 30.1514C1.21902 25.9343 -0.268501 20.9733 0.478863 15.3566C0.773628 13.1419 1.52387 11.0706 2.61897 9.12253C5.50177 3.99187 10.8886 0.53756 16.7504 0.0676641C16.94 0.0521691 17.1248 0.0233411 17.3118 0.000999451H19.2559C19.5147 0.0280257 19.7734 0.0554122 20.0321 0.0817177C22.0865 0.285632 24.0912 0.837383 25.9606 1.71338C31.7305 4.40735 35.7098 10.1268 36.2186 16.469C36.2345 16.6556 36.2633 16.8423 36.2857 17.0293ZM10.0043 26.4892C10.7722 26.4892 11.5409 26.5119 12.308 26.4842C13.7667 26.4312 14.9317 25.7995 15.6712 24.5383C17.6461 21.1671 19.5992 17.7834 21.5304 14.3872C22.2511 13.1184 22.2385 11.7855 21.5413 10.5034C20.7658 9.07712 19.9413 7.67753 19.1341 6.26856C19.0455 6.11361 18.9507 5.95001 18.8203 5.83398C18.6588 5.68984 18.4711 5.5457 18.2696 5.483C17.83 5.3439 17.4812 5.55507 17.2156 5.88839C17.0376 6.11109 16.8971 6.36621 16.7551 6.61558C13.3469 12.5909 9.94211 18.5676 6.54065 24.5458C6.42958 24.7372 6.34347 24.942 6.28444 25.1552C6.1331 25.7249 6.39687 26.2103 6.95722 26.3854C7.17516 26.4501 7.4012 26.4835 7.62855 26.4845C8.42023 26.4961 9.21228 26.4892 10.0043 26.4892ZM24.9455 26.4892C26.0986 26.4892 27.2504 26.4892 28.4009 26.4892C28.5507 26.489 28.7004 26.4797 28.8491 26.4611C29.3644 26.3962 29.7298 26.0961 29.8221 25.6593C29.8974 25.299 29.7896 24.9682 29.6149 24.6604C28.4245 22.5666 27.2304 20.475 26.0326 18.3857C25.9109 18.1798 25.7528 17.9978 25.566 17.8484C25.2006 17.5536 24.7538 17.5601 24.3934 17.8614C24.2058 18.0192 24.0462 18.2077 23.9214 18.4188C22.7185 20.4848 21.523 22.5548 20.3348 24.6287C20.2313 24.8106 20.1538 25.0062 20.1045 25.2096C19.9795 25.7271 20.2155 26.1826 20.7171 26.3606C20.961 26.4426 21.2166 26.4846 21.4739 26.4849C22.6299 26.4961 23.7866 26.4892 24.9455 26.4892Z" fill="#E74142"/>
<path d="M10.0041 26.4892C9.21134 26.4892 8.41857 26.496 7.62832 26.4845C7.40134 26.4834 7.17567 26.45 6.95807 26.3854C6.39772 26.2103 6.13395 25.7249 6.2853 25.1552C6.34432 24.9419 6.43043 24.7372 6.5415 24.5458C9.94225 18.5676 13.3467 12.5909 16.7549 6.61555C16.8969 6.36618 17.0374 6.11106 17.2154 5.88836C17.481 5.55648 17.8298 5.34387 18.2695 5.48297C18.4709 5.54675 18.6586 5.69017 18.8201 5.83395C18.9505 5.94998 19.0453 6.11358 19.1339 6.26853C19.9411 7.6775 20.7656 9.07709 21.5411 10.5034C22.2369 11.7844 22.2521 13.1177 21.5303 14.3872C19.599 17.7836 17.6459 21.1672 15.671 24.5379C14.9315 25.7991 13.7665 26.4312 12.3078 26.4838C11.5406 26.5119 10.772 26.4892 10.0041 26.4892Z" fill="#FEFEFE"/>
<path d="M24.9454 26.4892C23.788 26.4892 22.6298 26.4961 21.4724 26.4835C21.2151 26.4831 20.9595 26.4412 20.7156 26.3591C20.213 26.1826 19.9769 25.7256 20.103 25.2082C20.1523 25.0047 20.2298 24.8092 20.3333 24.6273C21.5232 22.5543 22.7187 20.4844 23.9199 18.4174C24.0447 18.2063 24.2043 18.0178 24.3919 17.86C24.7523 17.5573 25.1991 17.5522 25.5645 17.847C25.7513 17.9963 25.9094 18.1784 26.0312 18.3843C27.2323 20.4719 28.4264 22.5635 29.6134 24.659C29.7882 24.9668 29.8959 25.2972 29.8206 25.6579C29.7298 26.0946 29.3644 26.3948 28.8477 26.4597C28.699 26.4782 28.5493 26.4876 28.3994 26.4878C27.2487 26.4904 26.0974 26.4909 24.9454 26.4892Z" fill="#FEFDFD"/>
</g>
<defs>
<clipPath id="clip0_2263_1733">
<rect width="35.9939" height="36" fill="white" transform="translate(0.291992 0.000999451)"/>
</clipPath>
</defs>
</svg>
